<?xml version="1.0" standalone="no"?>
<!DOCTYPE svg PUBLIC "-//W3C//DTD SVG 20010904//EN"
 "http://www.w3.org/TR/2001/REC-SVG-20010904/DTD/svg10.dtd">
<svg version="1.0" xmlns="http://www.w3.org/2000/svg"
 width="512.000000pt" height="512.000000pt" viewBox="0 0 512.000000 512.000000"
 preserveAspectRatio="xMidYMid meet">
<metadata>
Created by potrace 1.14, written by Peter Selinger 2001-2017
</metadata>
<g transform="translate(0.000000,512.000000) scale(0.100000,-0.100000)"
fill="#000000" stroke="none">
<path d="M3013 5096 l-28 -24 0 -205 c0 -204 0 -206 24 -231 33 -35 83 -35
116 -1 14 13 25 34 26 47 4 97 1 360 -5 381 -7 28 -50 57 -85 57 -11 0 -33
-11 -48 -24z"/>
<path d="M1504 4689 c-39 -14 -58 -47 -55 -97 1 -29 368 -398 404 -407 55 -14
116 46 103 101 -9 34 -377 400 -408 406 -14 2 -33 1 -44 -3z"/>
<path d="M4574 4685 c-38 -17 -380 -362 -393 -396 -20 -56 42 -120 102 -105
12 3 109 92 215 199 163 164 192 198 192 223 0 62 -60 103 -116 79z"/>
<path d="M2950 4433 c-331 -43 -572 -150 -813 -362 -42 -38 -162 -181 -202
-242 -57 -86 -115 -203 -150 -299 -27 -75 -65 -236 -65 -277 0 -18 -9 -23 -57
-33 -219 -43 -408 -144 -569 -304 -155 -154 -243 -310 -299 -526 -35 -135 -38
-371 -7 -476 13 -41 5 -51 -43 -58 -73 -12 -200 -62 -283 -111 -236 -141 -401
-378 -450 -650 -4 -22 -6 -98 -6 -170 1 -151 22 -247 84 -382 54 -116 101
-182 200 -280 129 -128 328 -227 505 -251 62 -9 3395 -9 3450 -1 211 33 450
158 590 310 249 269 339 641 240 984 -91 315 -334 575 -634 680 -138 48 -228
62 -370 60 -56 0 -101 0 -101 2 0 1 30 33 68 71 200 201 329 457 378 745 15
92 12 385 -5 452 -5 22 -12 54 -15 70 -10 57 -54 180 -93 265 -183 394 -546
677 -975 761 -93 18 -308 31 -378 22z m315 -183 c95 -15 260 -71 359 -123 171
-88 332 -234 440 -397 82 -124 151 -296 180 -450 15 -77 15 -348 1 -420 -32
-159 -116 -356 -206 -480 -58 -80 -128 -160 -141 -160 -4 0 -23 24 -43 54 -86
129 -235 248 -390 309 -151 60 -334 76 -485 42 -41 -9 -81 -17 -88 -18 -8 -1
-29 25 -47 58 -144 258 -382 449 -663 531 -90 26 -111 30 -222 42 -61 7 -65 8
-66 33 -2 49 55 223 106 325 188 381 553 629 980 666 61 6 212 -1 285 -12z
m-1225 -1195 c223 -45 407 -153 553 -323 41 -48 109 -159 137 -222 47 -107 74
-120 177 -83 94 33 154 44 249 44 299 0 558 -194 651 -489 34 -111 54 -127
143 -116 100 12 244 7 327 -11 355 -79 622 -378 661 -741 9 -79 8 -102 -3
-204 -16 -150 -90 -314 -198 -443 -119 -140 -327 -258 -507 -285 -25 -4 -803
-7 -1730 -7 -1609 0 -1688 1 -1755 19 -273 72 -485 285 -556 556 -76 292 35
610 276 796 95 74 242 136 347 149 118 13 134 17 156 38 28 26 28 64 2 158
-46 166 -45 344 3 504 103 345 396 606 742 661 22 3 41 7 43 9 9 9 227 1 282
-10z"/>
<path d="M4653 3147 c-12 -5 -29 -24 -38 -42 -17 -38 -10 -69 24 -99 19 -18
38 -19 221 -19 194 -1 200 0 224 22 13 12 26 33 28 46 6 31 -15 80 -38 90 -27
12 -395 14 -421 2z"/>
</g>
</svg>
